<svg version="1.0" xmlns="http://www.w3.org/2000/svg"
 width="1386.000000pt" height="1498.000000pt" viewBox="0 0 1386.000000 1498.000000"
 preserveAspectRatio="xMidYMid meet"> 
<g transform="translate(0.000000,1498.000000) scale(0.100000,-0.100000)" stroke="none">
<path d="M5195 13853 c-33 -2 -70 -5 -82 -8 l-23 -5 0 -895 0 -895 165 0 165
0 0 905 0 905 -82 -2 c-46 -1 -110 -3 -143 -5z" fill="#5CE1E6"/>
<path d="M5610 12955 l0 -905 155 0 155 0 0 905 0 905 -155 0 -155 0 0 -905z" fill="#5CE1E6"/>
<path d="M6130 12955 l0 -905 140 0 140 0 0 905 0 905 -140 0 -140 0 0 -905z" fill="#5CE1E6"/>
<path d="M6660 12955 l0 -905 125 0 125 0 0 905 0 905 -125 0 -125 0 0 -905z" fill="#5CE1E6"/>
<path d="M7180 12955 l0 -905 110 0 110 0 0 905 0 905 -110 0 -110 0 0 -905z" fill="#5CE1E6"/>
<path d="M7700 12955 l0 -905 100 0 100 0 0 905 0 905 -100 0 -100 0 0 -905z" fill="#5CE1E6"/>
<path d="M8220 12955 l0 -905 85 0 85 0 0 905 0 905 -85 0 -85 0 0 -905z" fill="#5CE1E6"/>
<path d="M8740 12955 l0 -905 70 0 70 0 0 905 0 905 -70 0 -70 0 0 -905z" fill="#5CE1E6"/>
<path d="M9270 12955 l0 -905 55 0 55 0 0 905 0 905 -55 0 -55 0 0 -905z" fill="#5CE1E6"/>
<path d="M9790 12955 l0 -905 40 0 40 0 0 905 0 905 -40 0 -40 0 0 -905z" fill="#5CE1E6"/>
<path d="M10310 12955 l0 -905 30 0 30 0 0 905 0 905 -30 0 -30 0 0 -905z" fill="#5CE1E6"/>
<path d="M10830 12955 c0 -798 2 -905 15 -905 13 0 15 107 15 905 0 798 -2
905 -15 905 -13 0 -15 -107 -15 -905z" fill="#5CE1E6"/>
<path d="M11355 12955 c0 -500 1 -704 2 -452 2 252 2 662 0 910 -1 249 -2 43
-2 -458z" fill="#5CE1E6"/>
<path d="M4850 13814 c-8 -2 -80 -15 -159 -29 -1310 -234 -2474 -1040 -3169
-2194 -172 -287 -347 -670 -447 -981 -227 -707 -282 -1507 -154 -2245 352
-2025 1989 -3589 4029 -3849 271 -35 426 -37 1955 -34 1509 3 1510 3 1590 25
388 105 683 399 776 778 26 105 35 297 20 406 -62 419 -371 760 -796 876
l-100 28 -2065 5 c-2059 6 -2065 6 -2150 27 -434 108 -752 382 -899 773 -82
219 -76 72 -76 1910 0 1543 1 1640 18 1720 56 260 162 457 345 643 182 183
380 292 645 353 56 13 142 18 395 21 l322 5 0 884 0 884 -32 -1 c-18 -1 -40
-3 -48 -5z" fill="#5CE1E6"/>
<path d="M4820 9330 l0 -1030 1638 0 c937 0 1701 -5 1786 -10 668 -43 1270
-307 1744 -764 163 -158 271 -287 394 -471 313 -470 475 -1038 455 -1595 -7
-189 -18 -286 -52 -456 -167 -828 -737 -1555 -1517 -1932 l-118 -57 0 -981 0
-982 43 10 c163 36 454 131 657 215 809 334 1458 812 1967 1448 445 557 758
1202 912 1883 202 886 143 1834 -166 2666 -242 652 -601 1215 -1088 1701 -767
768 -1763 1243 -2830 1350 -313 31 -554 35 -2182 35 l-1643 0 0 -1030z" fill="white"/>
<path d="M8900 2925 c-36 -13 -104 -33 -152 -45 l-88 -22 0 -941 0 -940 93 7
c50 4 124 12 162 19 l70 12 3 968 c2 771 0 967 -10 966 -7 -1 -42 -12 -78 -24z" fill="white"/>
<path d="M8308 2802 l-138 -15 0 -909 0 -908 150 0 150 0 0 925 c0 734 -3 925
-12 923 -7 0 -75 -8 -150 -16z" fill="white"/>
<path d="M2725 1875 c0 -500 1 -704 2 -452 2 252 2 662 0 910 -1 249 -2 43 -2
-458z" fill="white"/>
<path d="M3220 1875 c0 -798 2 -905 15 -905 13 0 15 107 15 905 0 798 -2 905
-15 905 -13 0 -15 -107 -15 -905z" fill="white"/>
<path d="M3710 1875 l0 -905 30 0 30 0 0 905 0 905 -30 0 -30 0 0 -905z" fill="white"/>
<path d="M4210 1875 l0 -905 40 0 40 0 0 905 0 905 -40 0 -40 0 0 -905z" fill="white"/>
<path d="M4700 1875 l0 -905 60 0 60 0 0 905 0 905 -60 0 -60 0 0 -905z" fill="white"/>
<path d="M5200 1875 l0 -905 70 0 70 0 0 905 0 905 -70 0 -70 0 0 -905z" fill="white"/>
<path d="M5690 1875 l0 -905 85 0 85 0 0 905 0 905 -85 0 -85 0 0 -905z" fill="white"/>
<path d="M6190 1875 l0 -905 95 0 95 0 0 905 0 905 -95 0 -95 0 0 -905z" fill="white"/>
<path d="M6680 1875 l0 -905 110 0 110 0 0 905 0 905 -110 0 -110 0 0 -905z" fill="white"/>
<path d="M7180 1875 l0 -905 120 0 120 0 0 905 0 905 -120 0 -120 0 0 -905z" fill="white"/>
<path d="M7670 1875 l0 -905 140 0 140 0 0 905 0 905 -140 0 -140 0 0 -905z" fill="white"/>
</g>
</svg>
